<?xml version="1.0" encoding="UTF-8"?><svg id="Layer_2" xmlns="http://www.w3.org/2000/svg" viewBox="0 0 186.57 126.19"><defs><style>.cls-1{fill:#fff;}.cls-1,.cls-2{fill-rule:evenodd;}.cls-2{fill:#f60;}</style></defs><g id="Layer_1-2"><g><g><polygon class="cls-1" points="69.2 65.7 48.7 78.57 38.21 97.05 78.88 97.05 93.29 71.67 107.7 97.05 148.38 97.05 129.93 64.55 116.74 64.55 128.67 85.58 114.39 85.58 102.45 64.55 84.13 64.55 72.2 85.58 57.92 85.58 69.2 65.7"/><path class="cls-2" d="M48.7,78.57l20.5-12.88,4.07-7.17h53.24L93.29,0l-23.28,41.02h13.2l10.09-17.77,13.51,23.8h-40.21l-17.89,31.52Z"/></g><g><path class="cls-2" d="M143.5,108.32l2.19,8.28c.1,.37,.2,.76,.28,1.17,.09,.4,.18,.87,.28,1.39,.11-.62,.22-1.13,.3-1.53,.09-.4,.17-.74,.25-1.03l2.04-8.28h4.79l-4.92,17.41h-4.4l-2.16-7.44c-.08-.26-.21-.77-.39-1.53-.08-.34-.14-.61-.19-.8-.04,.17-.1,.4-.17,.7-.18,.77-.32,1.31-.41,1.63l-2.12,7.44h-4.41l-4.91-17.41h4.79l2,8.32c.1,.43,.19,.86,.28,1.29,.1,.43,.18,.87,.26,1.32,.07-.33,.15-.68,.23-1.05,.09-.36,.21-.88,.38-1.56l2.18-8.32h3.83ZM4.45,116.16h.91c1.14,0,1.94-.16,2.38-.47,.45-.31,.68-.84,.68-1.6s-.22-1.25-.67-1.56c-.44-.31-1.23-.47-2.35-.47h-.95v4.09Zm0,9.57H0v-17.41H4.97c1.94,0,3.3,.09,4.09,.28,.78,.2,1.45,.52,1.99,.98,.64,.53,1.13,1.2,1.47,2,.34,.8,.51,1.68,.51,2.65,0,1.04-.17,1.95-.5,2.74-.33,.79-.83,1.44-1.48,1.94-.49,.38-1.07,.65-1.73,.82-.67,.17-1.73,.25-3.2,.25h-1.67v5.75Z"/><path class="cls-1" d="M181.78,125.73v-17.41h4.8v17.41h-4.8Zm-17.78,0v-17.41h4.7v7.91l5.5-7.91h5.53l-6.43,8.49,6.99,8.92h-5.92l-5.67-7.81v7.81h-4.7Zm-8.62,0v-17.41h4.8v17.41h-4.8Zm-42.32,0v-13.29h-3.9v-4.11h12.54v4.11h-3.9v13.29h-4.75Zm-5.18-16.73v5.18c-.65-.72-1.3-1.25-1.95-1.59-.64-.34-1.34-.51-2.07-.51-1.37,0-2.47,.46-3.31,1.39-.85,.93-1.27,2.14-1.27,3.64,0,1.4,.43,2.55,1.29,3.46,.86,.93,1.95,1.38,3.29,1.38,.73,0,1.42-.16,2.07-.5,.65-.33,1.3-.86,1.95-1.59v5.18c-.75,.37-1.51,.64-2.25,.83-.75,.18-1.49,.27-2.26,.27-.95,0-1.83-.11-2.63-.33-.8-.23-1.54-.58-2.21-1.03-1.3-.87-2.29-1.97-2.97-3.29-.68-1.33-1.02-2.82-1.02-4.47,0-1.33,.22-2.54,.65-3.63,.43-1.09,1.09-2.08,1.95-2.97,.82-.85,1.75-1.48,2.79-1.91,1.03-.41,2.18-.63,3.45-.63,.76,0,1.51,.09,2.26,.27,.74,.18,1.49,.46,2.25,.83Zm-26.41,16.73v-17.41h10.66v3.82h-6.04v3.02h5.69v3.72h-5.69v2.95h6.04v3.9h-10.66Zm-10.98-9.57h.91c1.14,0,1.93-.16,2.38-.47,.45-.31,.68-.84,.68-1.6s-.22-1.25-.67-1.56c-.44-.31-1.23-.47-2.36-.47h-.95v4.09Zm0,9.57h-4.45v-17.41h4.97c1.94,0,3.3,.09,4.09,.28,.78,.2,1.45,.52,1.99,.98,.64,.53,1.13,1.2,1.47,2,.33,.8,.5,1.68,.5,2.65,0,1.04-.17,1.95-.5,2.74-.33,.79-.82,1.44-1.47,1.94-.49,.38-1.07,.65-1.73,.82-.67,.17-1.73,.25-3.2,.25h-1.67v5.75Zm-17.83-5.63c.71,.8,1.4,1.4,2.09,1.79,.69,.4,1.37,.59,2.05,.59,.63,0,1.15-.17,1.56-.51,.41-.34,.61-.77,.61-1.29,0-.58-.17-1.02-.52-1.33-.36-.31-1.15-.64-2.39-.97-1.71-.46-2.91-1.06-3.62-1.79-.71-.74-1.06-1.75-1.06-3.03,0-1.67,.55-3.02,1.67-4.07,1.11-1.05,2.56-1.58,4.33-1.58,.96,0,1.87,.13,2.73,.39,.86,.26,1.67,.65,2.44,1.17l-1.49,3.41c-.54-.46-1.09-.8-1.66-1.04-.56-.23-1.13-.34-1.68-.34s-1.03,.14-1.38,.41c-.36,.27-.54,.63-.54,1.05s.16,.78,.47,1.05c.31,.26,.91,.51,1.81,.75l.21,.06c1.94,.52,3.21,1.09,3.82,1.72,.41,.43,.73,.94,.94,1.53,.22,.6,.32,1.26,.32,1.99,0,1.84-.6,3.33-1.82,4.45-1.21,1.13-2.83,1.68-4.86,1.68-1.21,0-2.32-.21-3.31-.61-.99-.41-1.95-1.06-2.87-1.94l2.14-3.54Zm-13.04,2.07c1.31,0,2.4-.48,3.26-1.45,.86-.97,1.29-2.19,1.29-3.66s-.44-2.67-1.31-3.65c-.87-.97-1.96-1.46-3.24-1.46s-2.4,.49-3.26,1.46c-.86,.97-1.29,2.19-1.29,3.65s.43,2.71,1.27,3.67c.85,.96,1.95,1.44,3.29,1.44Zm9.3-5.11c0,1.25-.23,2.42-.69,3.52-.46,1.1-1.13,2.07-2.01,2.94-.89,.86-1.9,1.51-3.04,1.98-1.14,.46-2.33,.69-3.55,.69s-2.44-.23-3.57-.69c-1.14-.47-2.13-1.13-3-1.98-.9-.86-1.58-1.84-2.04-2.95-.46-1.1-.7-2.27-.7-3.51s.24-2.41,.7-3.52c.46-1.09,1.14-2.07,2.04-2.94,.87-.86,1.86-1.51,3-1.98,1.14-.47,2.33-.7,3.57-.7s2.43,.23,3.57,.7c1.14,.46,2.15,1.12,3.02,1.98s1.54,1.84,2.01,2.94c.47,1.1,.7,2.27,.7,3.52Zm-29.03-.51h.88c1.02,0,1.77-.18,2.24-.52,.47-.35,.71-.9,.71-1.64,0-.87-.22-1.49-.66-1.87-.44-.37-1.18-.55-2.21-.55h-.95v4.58Zm-4.45,9.18v-17.41h4.97c1.94,0,3.3,.09,4.06,.27,.76,.18,1.43,.48,1.98,.9,.63,.47,1.11,1.08,1.44,1.82,.34,.74,.51,1.55,.51,2.44,0,1.35-.33,2.44-.99,3.29-.67,.84-1.63,1.4-2.9,1.68l4.75,7.02h-5.36l-3.99-6.82v6.82h-4.45Z"/></g></g></g></svg>